<svg width="52" height="53" viewBox="0 0 52 53" fill="none" xmlns="http://www.w3.org/2000/svg">
<path d="M3.90113 52.5555C2.19991 52.1408 0.807022 50.812 0.214551 49.0385L0.0317568 48.4913L0.0114009 26.5833C-0.0114363 2.00469 -0.0628934 4.11136 0.592131 2.80797C1.20897 1.58055 2.19681 0.725334 3.55012 0.247104L4.17473 0.0263827L25.554 0.00480291C40.1888 -0.00996858 47.102 0.00909921 47.468 0.0652411C48.6083 0.240138 49.4422 0.666952 50.2938 1.5116C50.8691 2.08223 51.343 2.86923 51.6354 3.73942C51.7742 4.15283 51.7806 5.01042 51.8013 26.0567C51.8255 50.5434 51.8704 48.5772 51.2571 49.8593C50.8272 50.758 49.8613 51.7378 48.9991 52.15C47.8076 52.7195 49.8365 52.6741 25.8945 52.6668C8.14892 52.6614 4.25494 52.6418 3.90113 52.5555ZM16.1346 40.5566C17.4244 40.3342 18.9722 40.0706 19.5741 39.9709C20.176 39.8712 20.6857 39.7864 20.7067 39.7825C20.7278 39.7786 20.0773 39.107 19.2612 38.29L17.7773 36.8046L21.1377 33.4435L24.498 30.0824L23.3646 28.949L22.2311 27.8155L18.8708 31.1766L15.5104 34.5377L14.092 33.1208L12.6736 31.704L12.588 32.2416C11.998 35.9474 11.7433 37.5302 11.4814 39.1169C11.3106 40.152 11.1709 41.0868 11.1709 41.1943V41.3897L12.4802 41.1754C13.2003 41.0576 14.8448 40.7791 16.1346 40.5566ZM40.6766 41.202C40.6064 40.8531 40.0669 37.5214 39.819 35.9061C39.381 33.0506 39.2297 32.0893 39.1861 31.8861C39.1494 31.7145 39.0095 31.8323 37.72 33.1204L36.2944 34.5444L32.945 31.1699L29.5957 27.7954L28.4571 28.9415L27.3186 30.0875L30.6763 33.4459L34.034 36.8044L32.8942 37.9577C31.2179 39.6537 31.1565 39.7252 31.32 39.791C31.3947 39.8211 32.7397 40.0599 34.309 40.3217C35.8782 40.5835 37.8481 40.9171 38.6864 41.063C40.4991 41.3784 40.7152 41.3935 40.6766 41.202ZM21.1377 19.2953L17.7773 15.9342L19.2552 14.4548L20.7332 12.9753L20.4663 12.9301C18.9737 12.6776 15.7083 12.1179 14.2976 11.8727C12.739 11.6019 11.603 11.4163 11.249 11.3747C11.1013 11.3573 11.1011 11.3552 11.4843 13.706C12.4542 19.6567 12.6561 20.9092 12.6561 20.9771C12.6561 21.0185 13.2985 20.4106 14.0836 19.6263L15.5112 18.2004L18.8694 21.5636L22.2276 24.9268L23.3628 23.7916L24.498 22.6564L21.1377 19.2953ZM32.9915 21.5197L36.2943 18.1943L37.7199 19.6183C39.0153 20.9123 39.1495 21.0251 39.1885 20.8527C39.2122 20.7484 39.2997 20.2234 39.3829 19.6859C39.889 16.4192 40.1416 14.8336 40.4096 13.2398C40.5756 12.2525 40.6954 11.4286 40.6756 11.4089C40.6291 11.3624 39.807 11.4855 37.3576 11.9059C35.7332 12.1846 32.647 12.7104 31.3452 12.9302L31.0784 12.9753L32.5532 14.4517C33.3644 15.2637 34.0121 15.9442 33.9926 15.9639C33.9731 15.9836 32.4886 17.4799 30.6936 19.289C28.8987 21.0981 27.4301 22.6068 27.4301 22.6418C27.4301 22.7409 29.5042 24.8451 29.6019 24.8451C29.6497 24.8451 31.175 23.3487 32.9915 21.5197Z" fill="black"/>
</svg>
