<svg width="52" height="52" viewBox="0 0 52 52" fill="none" xmlns="http://www.w3.org/2000/svg">
<path d="M10.8759 51.9264C6.59669 51.8933 3.38807 51.8348 3.17688 51.786C2.61916 51.6571 1.53044 51.0002 1.1099 50.5389C0.901895 50.3107 0.567073 49.7961 0.365854 49.3954L0 48.6667L0.00926945 25.9188L0.0185387 3.17083L0.217376 2.70237C0.447634 2.15988 0.98134 1.40051 1.37016 1.06216C1.78082 0.704808 2.44579 0.348871 3.02107 0.17848C3.51326 0.0327016 4.62095 0.0242029 25.3339 0.007286C49.6815 -0.0125994 48.7921 -0.0314789 49.8036 0.52671C50.6286 0.981977 51.1043 1.50979 51.7291 2.6632C51.7906 2.77679 51.8764 3.39078 51.9197 4.02761C52.0266 5.601 52.0269 45.9634 51.92 47.71C51.846 48.9175 51.8146 49.099 51.6315 49.372C51.5185 49.5405 51.3989 49.7627 51.3658 49.8657C51.3326 49.9687 51.0649 50.2962 50.7708 50.5935C50.1016 51.2701 49.3864 51.6456 48.5354 51.7672C46.9322 51.9963 29.4785 52.0701 10.8759 51.9264ZM43.0311 40.2056C43.2723 40.043 43.3703 39.9077 43.513 39.5404C43.5676 39.3998 43.775 38.9207 43.9738 38.4757C44.3702 37.5886 44.365 37.6759 44.109 36.176C44.0331 35.7309 43.9391 35.1752 43.9003 34.9409C43.7933 34.2966 43.4729 32.554 43.3256 31.8151C43.2537 31.4544 43.0982 30.6111 42.9801 29.9412C42.7245 28.4908 42.5517 27.5301 42.4318 26.8919C42.3834 26.6343 42.2483 25.8677 42.1315 25.1885C41.9016 23.8505 41.6219 22.2362 41.4675 21.3556C41.4142 21.0511 41.3192 20.572 41.2566 20.2909C41.194 20.0098 41.0984 19.4924 41.0442 19.1411C40.9901 18.7897 40.8932 18.2531 40.8289 17.9486C40.7647 17.6441 40.6719 17.1458 40.6228 16.8413C40.4185 15.5752 39.8922 12.7045 39.663 11.6062C39.6242 11.4205 39.5068 11.2001 39.4021 11.1164C39.2211 10.9718 38.5552 10.9643 25.975 10.9643C12.8903 10.9643 12.7366 10.9662 12.579 11.1331C12.3707 11.3538 12.1924 12.1776 11.6941 15.223C11.6519 15.4807 11.5802 15.8831 11.5347 16.1174C11.4044 16.7887 11.278 17.4875 11.0955 18.5448C10.9426 19.4303 10.6944 20.7605 10.4914 21.7815C10.4495 21.9923 10.3715 22.4139 10.3181 22.7184C10.1304 23.7884 10.0701 24.1284 9.97828 24.6348C9.85877 25.2941 9.4507 27.6603 9.36133 28.2121C9.3234 28.4464 9.18685 29.1746 9.05788 29.8305C8.92891 30.4863 8.79452 31.2146 8.75924 31.4488C8.66515 32.0735 8.27528 34.2391 8.11522 35.0261C8.03899 35.4009 7.93789 35.9758 7.89053 36.3037C7.84318 36.6317 7.78311 37.0379 7.75704 37.2066C7.72986 37.3825 7.7654 37.6729 7.84045 37.8879C7.97445 38.2719 8.73051 40.0128 8.77794 40.0466C9.22535 40.365 8.34557 40.3495 26.0244 40.3495C41.6477 40.3495 42.8325 40.3395 43.0311 40.2056ZM9.62654 38.6935C9.53034 38.4852 9.45165 38.2742 9.45165 38.2248C9.45165 38.1621 14.4588 38.135 26.0244 38.135H42.5971L42.5908 38.3266C42.5874 38.432 42.5162 38.6333 42.4327 38.7738L42.281 39.0293L26.0412 39.0508L9.80142 39.0723L9.62654 38.6935ZM9.34112 36.789C9.17223 36.7557 9.17453 36.7152 9.41452 35.4946C9.48359 35.1432 9.57763 34.6641 9.62348 34.4299C9.66934 34.1957 9.76826 33.6399 9.84331 33.1949C9.91836 32.7498 10.0163 32.2471 10.061 32.0777C10.1056 31.9083 10.1422 31.6479 10.1422 31.499C10.1422 31.3501 10.1973 30.9904 10.2647 30.6997C10.4422 29.9338 10.562 29.2941 10.6188 28.8084C10.6462 28.5741 10.742 28.0184 10.8316 27.5733C11.2175 25.6563 11.8265 22.2618 12.2145 19.865C12.4782 18.2359 12.6169 17.4921 12.9054 16.1599C12.9916 15.7618 13.1671 14.7652 13.2953 13.9454C13.4234 13.1256 13.5421 12.4069 13.5589 12.3484C13.5831 12.2638 16.1415 12.2419 25.9807 12.2419H38.3719L38.4453 12.4336C38.51 12.6025 39.0155 15.3122 39.2438 16.7136C39.2896 16.9947 39.3846 17.5121 39.455 17.8634C39.5254 18.2148 39.6377 18.8472 39.7046 19.2688C39.9095 20.5601 40.2363 22.3889 40.7321 25.0181C40.9927 26.4001 41.3455 28.3931 41.5161 29.4472C41.8332 31.4062 41.9072 31.8172 42.2906 33.7485C42.4115 34.3575 42.567 35.2302 42.6361 35.688C42.7052 36.1457 42.7836 36.555 42.8103 36.5977C42.837 36.6403 42.8097 36.7066 42.7496 36.745C42.6468 36.8107 9.67078 36.8541 9.34112 36.789ZM41.4558 35.873C41.7016 35.7032 41.7039 35.3973 41.4694 34.0735C41.3713 33.52 41.2366 32.7413 41.17 32.3431C41.1034 31.9449 41.0298 31.5425 41.0065 31.4488C40.9487 31.2167 40.7638 30.1765 40.3934 27.9992C40.222 26.992 40.0021 25.7463 39.9047 25.231C39.8073 24.7157 39.6967 24.0833 39.6589 23.8257C39.6211 23.568 39.5121 22.9739 39.4167 22.5055C39.1988 21.4354 38.8395 19.4686 38.7088 18.63C38.6024 17.9482 38.3552 16.551 38.1436 15.436C38.0725 15.0612 37.9763 14.5246 37.9299 14.2435C37.815 13.5483 37.7038 13.3034 37.4514 13.1899C37.2958 13.1199 34.15 13.0937 25.9301 13.0937H14.6228L14.4213 13.2925C14.2768 13.435 14.1896 13.6699 14.1129 14.1229C14.054 14.4703 13.929 15.1378 13.835 15.6063C13.7409 16.0748 13.6289 16.688 13.586 16.9691C13.5432 17.2502 13.471 17.691 13.4256 17.9486C13.3216 18.5397 13.0939 19.8904 12.9948 20.5038C12.9532 20.7615 12.8409 21.3748 12.7453 21.8666C12.6497 22.3585 12.4691 23.3167 12.3441 23.996C12.2191 24.6753 12.0228 25.7293 11.9081 26.3383C11.6355 27.7844 11.2861 29.8297 11.0933 31.1081C11.0509 31.3892 10.9534 31.9449 10.8766 32.3431C10.7998 32.7413 10.7016 33.2779 10.6584 33.5356C10.6152 33.7932 10.5244 34.3278 10.4566 34.7235C10.3284 35.4715 10.3405 35.6077 10.5571 35.8566C10.6797 35.9975 11.5218 36.0056 25.9754 36.0056C39.6731 36.0056 41.2839 35.9918 41.4558 35.873ZM11.4681 34.9407C11.4407 34.8704 11.4447 34.7089 11.477 34.5819C11.5093 34.455 11.5693 34.0814 11.6103 33.7517C11.715 32.9098 12.2847 29.738 12.4141 29.2768L12.5216 28.8935L15.4843 28.8711L18.4469 28.8487L18.4077 29.1692C18.3421 29.7056 18.091 32.222 17.9646 33.6093C17.8816 34.5209 17.8094 34.9405 17.727 34.9921C17.6618 35.0328 16.2381 35.0667 14.5632 35.0674C11.933 35.0685 11.511 35.0513 11.4681 34.9407ZM18.8819 34.9167C18.8529 34.842 18.8789 34.2995 18.9398 33.7111C19.073 32.4231 19.1823 31.1367 19.2515 30.0434C19.2797 29.5984 19.3205 29.1475 19.3423 29.0415L19.3819 28.8488L22.4226 28.8712L25.4633 28.8935V31.9598V35.0261L22.199 35.0393C19.2834 35.0511 18.9291 35.038 18.8819 34.9167ZM26.569 34.9622C26.5035 34.8624 26.5002 28.9493 26.5655 28.8848C26.6145 28.8365 32.4938 28.8383 32.5731 28.8866C32.6129 28.9109 32.6708 29.2099 32.7017 29.551C32.7327 29.8921 32.7959 30.5353 32.8423 30.9803C33.1434 33.8699 33.2053 34.8185 33.101 34.9426C33.0108 35.0498 32.5183 35.0687 29.8168 35.0687C27.3692 35.0687 26.6227 35.0442 26.569 34.9622ZM34.2468 34.9622C34.2001 34.9037 34.1378 34.5683 34.1085 34.217C34.0792 33.8656 33.9553 32.5665 33.8333 31.33C33.7112 30.0935 33.6315 29.0299 33.6562 28.9664C33.6928 28.8724 34.2462 28.851 36.637 28.851H39.5728L39.6168 29.0426C39.641 29.148 39.6982 29.4642 39.7439 29.7453C39.833 30.2933 40.2602 32.7356 40.4919 34.0217C40.5696 34.4531 40.6101 34.8651 40.582 34.9373C40.5373 35.0523 40.1447 35.0687 37.4314 35.0687C35.0547 35.0687 34.3121 35.0439 34.2468 34.9622ZM12.7904 27.8584C12.6804 27.7499 12.7315 27.3073 13.0675 25.4595C13.2522 24.4438 13.4685 23.2315 13.5482 22.7657C13.6279 22.2998 13.7306 21.8494 13.7765 21.7649C13.854 21.6219 14.0412 21.6111 16.4412 21.6111C17.861 21.6111 19.0422 21.6424 19.0661 21.6806C19.0901 21.7189 19.0752 22.0159 19.033 22.3407C18.9908 22.6656 18.8896 23.6979 18.8082 24.6348C18.7267 25.5717 18.6177 26.6833 18.5659 27.1049L18.4717 27.8715L15.6604 27.8939C14.1142 27.9062 12.8227 27.8903 12.7904 27.8584ZM19.5214 27.7914C19.4947 27.7227 19.5265 27.1952 19.5921 26.6191C19.6576 26.0431 19.7532 25.0543 19.8044 24.4219C19.95 22.6248 20.054 21.7617 20.1349 21.682C20.1758 21.6416 21.3914 21.6187 22.8363 21.6311L25.4633 21.6537V24.7626V27.8715L22.5167 27.8939C19.993 27.913 19.563 27.8983 19.5214 27.7914ZM26.5991 27.8506C26.5764 27.8145 26.5296 26.48 26.4949 24.885C26.4477 22.7133 26.4575 21.9378 26.5339 21.7969L26.636 21.6087L29.2865 21.6312L31.9371 21.6537L31.995 22.1648C32.0269 22.4458 32.0981 23.1741 32.1532 23.7831C32.2083 24.3921 32.2935 25.312 32.3427 25.8273C32.3918 26.3426 32.4371 27.0133 32.4435 27.3178L32.455 27.8715L29.5476 27.8939C27.9485 27.9062 26.6217 27.8867 26.5991 27.8506ZM33.539 27.7224C33.4963 27.617 33.4178 26.9558 33.3646 26.2531C33.2558 24.817 33.1339 23.5312 33.0062 22.4719C32.9572 22.0656 32.9524 21.725 32.9952 21.6828C33.0366 21.6419 34.23 21.6187 35.6471 21.6311L38.2238 21.6537L38.2878 21.8666C38.3229 21.9838 38.4146 22.4437 38.4915 22.8887C38.6616 23.8731 38.903 25.2238 39.1554 26.604C39.2593 27.1717 39.3199 27.6988 39.2902 27.7752C39.2418 27.8996 38.9444 27.914 36.4264 27.914H33.6165L33.539 27.7224ZM13.9915 20.6021C13.9455 20.5288 13.9854 20.2592 14.2333 18.9707C14.3905 18.1537 14.5635 17.179 14.7626 15.9896C14.8371 15.5446 14.945 14.9313 15.0024 14.6268L15.1066 14.0732L17.3601 14.0505C19.171 14.0323 19.6325 14.0504 19.7105 14.1431C19.7825 14.2287 19.7761 14.5419 19.686 15.3582C19.6192 15.9631 19.5204 17.0521 19.4663 17.7783C19.3574 19.2416 19.2173 20.5012 19.1516 20.6059C19.0942 20.6976 14.0489 20.6939 13.9915 20.6021ZM20.1954 20.5847C20.1637 20.5342 20.1609 20.3707 20.1892 20.2215C20.2176 20.0723 20.3 19.2795 20.3725 18.4597C20.5659 16.2701 20.6715 15.159 20.7407 14.5842L20.8022 14.0732H23.1328H25.4633V17.3524V20.6316L22.8581 20.6541C21.0634 20.6697 20.235 20.6481 20.1954 20.5847ZM26.533 18.8217C26.528 17.8028 26.5097 16.35 26.4925 15.5933C26.468 14.5163 26.4864 14.1969 26.5771 14.1226C26.6574 14.0569 27.3772 14.0347 28.9173 14.0504C30.7905 14.0696 31.1522 14.0933 31.2093 14.2009C31.2466 14.2712 31.3215 14.8461 31.3757 15.4786C31.4299 16.111 31.5667 17.5073 31.6796 18.5815C31.7925 19.6557 31.8652 20.566 31.8411 20.6044C31.8171 20.6428 30.615 20.6742 29.1698 20.6742H26.5423L26.533 18.8217ZM32.8899 20.5944C32.7703 20.4034 32.1954 14.2546 32.2839 14.1132C32.3153 14.0632 33.2356 14.0306 34.6163 14.0306H36.897L36.9386 14.2222C37.0627 14.7929 37.3476 16.3399 37.5074 17.3098C37.6077 17.9188 37.7453 18.7429 37.8131 19.1411C37.881 19.5393 37.9613 20.0471 37.9915 20.2696L38.0464 20.6742H35.4932C33.9982 20.6742 32.9192 20.6411 32.8899 20.5944Z" fill="black"/>
</svg>
