<svg width="53" height="54" viewBox="0 0 53 54" fill="none" xmlns="http://www.w3.org/2000/svg">
<path d="M3.52441 52.9173C1.94562 52.6063 0.572092 51.3234 0.152296 49.7676L0 49.2032L0.0187249 26.2907L0.0374498 3.37826L0.226404 2.86224C0.724144 1.50294 1.91918 0.449237 3.3439 0.11345C3.76113 0.0151103 6.37166 0.00229889 26.1792 0.00134499C51.0249 0.00012062 48.8813 -0.0439679 49.9732 0.491129C50.7085 0.851469 51.3753 1.51809 51.7787 2.29615C52.3558 3.40916 52.3056 1.10454 52.3047 26.4765C52.3037 51.5916 52.3446 49.5038 51.8333 50.539C51.3537 51.5099 50.6595 52.1806 49.6606 52.6379C48.7696 53.0458 49.9624 53.0264 26.0807 53.0218C7.65109 53.0182 3.94947 53.001 3.52441 52.9173ZM33.6477 40.8599C33.8209 40.7382 34.0444 40.493 34.1443 40.315L34.3259 39.9913L34.3453 27.9686C34.3592 19.352 34.3417 15.8353 34.2838 15.5556C34.1854 15.0807 33.7381 14.5847 33.2981 14.4625C33.1402 14.4186 32.3478 14.3846 31.4797 14.3844L29.9411 14.384L29.9178 13.263C29.8921 12.0221 29.8554 11.9126 29.3505 11.569C29.1118 11.4065 29.0933 11.4055 26.3424 11.4056C23.2948 11.4058 23.2593 11.4105 22.9258 11.8646C22.7913 12.0477 22.7729 12.1918 22.7522 13.2219L22.7291 14.3744L21.0451 14.3973C19.4248 14.4194 19.3496 14.4268 19.0587 14.5935C18.7193 14.788 18.5185 15.0292 18.3928 15.3937C18.329 15.5786 18.3077 18.6825 18.3077 27.7638C18.3077 38.5597 18.32 39.9166 18.4205 40.1571C18.57 40.5149 18.8594 40.8145 19.2157 40.9802C19.4935 41.1093 19.8123 41.1145 26.4195 41.0981L33.3327 41.081L33.6477 40.8599ZM19.6178 39.7418C19.5666 39.6461 19.5484 35.7915 19.5608 27.6646L19.579 15.7279L26.3168 15.7094L33.0546 15.6908V27.7425C33.0546 38.6651 33.0438 39.7983 32.9397 39.8383C32.8765 39.8625 29.8701 39.8824 26.2589 39.8824C19.8407 39.8824 19.6913 39.8793 19.6178 39.7418ZM31.747 27.787V16.9992L30.8934 16.9951C30.0452 16.991 24.3944 16.992 22.067 16.9968L20.8502 16.9992V27.7386C20.8502 33.6452 20.872 38.4997 20.8987 38.5263C20.9253 38.553 23.3771 38.5748 26.347 38.5748H31.747V27.787Z" fill="black"/>
</svg>
