<svg width="51" height="51" viewBox="0 0 51 51" fill="none" xmlns="http://www.w3.org/2000/svg">
<path d="M3.8764 50.435C2.28952 50.1196 0.759262 48.7535 0.224558 47.1749L0.0304629 46.6018L0.0112099 25.4992C-0.0104401 1.76921 -0.0603222 3.92951 0.536835 2.73537C0.796196 2.21673 0.971513 1.98017 1.45562 1.49563C1.95237 0.99843 2.1663 0.841607 2.71643 0.571373C4.00071 -0.0594874 1.58455 0.00160859 25.249 0.00160859C48.8939 0.00160859 46.4998 -0.0581385 47.7657 0.563537C48.2841 0.818085 48.5279 0.994692 48.9939 1.45291C49.6366 2.08505 49.9899 2.64876 50.2849 3.5129L50.4675 4.04773L50.4868 25.1155C50.5084 48.726 50.555 46.632 49.9829 47.8073C49.4975 48.8046 48.4958 49.7615 47.5236 50.1565C46.5086 50.569 47.982 50.5439 25.1996 50.5367C7.88792 50.5313 4.27442 50.514 3.8764 50.435ZM33.2017 37.8212C35.4235 37.0717 36.9079 35.532 37.5152 33.3473C37.6205 32.9683 37.6315 32.2123 37.6315 25.3596V17.7906L37.4392 17.1775C37.1796 16.3498 36.8487 15.7141 36.3562 15.0968C35.4442 13.9536 34.4413 13.2926 33.0622 12.9256L32.4692 12.7678H25.249H18.0287L17.4358 12.9277C15.1084 13.5553 13.4153 15.36 12.9394 17.7208C12.8394 18.2172 12.8291 19.0936 12.8467 25.6387L12.8664 32.9985L13.1306 33.7618C13.2759 34.1816 13.4921 34.6952 13.611 34.9031C14.4897 36.4388 16.1585 37.6284 17.9289 37.9811C18.0989 38.015 21.4714 38.0379 25.4234 38.032L32.6087 38.0213L33.2017 37.8212ZM18.3111 36.3043C17.5542 36.194 16.9147 35.913 16.2145 35.3828C15.5586 34.8863 15.0785 34.1915 14.6884 33.1744C14.5419 32.7922 14.5405 32.7317 14.5214 25.5879C14.4998 17.5309 14.477 17.9457 14.9997 16.8646C15.4796 15.8722 16.5167 14.9832 17.6451 14.5972L18.0985 14.4421L25.0174 14.4227C32.7837 14.4009 32.4924 14.3845 33.5482 14.9051C34.6876 15.4669 35.6055 16.6464 35.8834 17.9059C35.9844 18.3635 35.9944 19.1881 35.9769 25.6038L35.9573 32.7892L35.795 33.2426C35.232 34.8161 33.8728 36.0024 32.3148 36.2801C31.8753 36.3585 30.5268 36.3758 25.249 36.3709C21.6615 36.3676 18.5395 36.3376 18.3111 36.3043ZM31.8326 31.3242C32.2114 31.2671 32.8236 31.1178 33.1929 30.9925L33.8644 30.7647L33.8827 27.9575L33.9009 25.1504H32.0514H30.202V25.8829V26.6153H31.2497H32.2975L32.2787 28.1673L32.2599 29.7192L31.9934 29.8064C31.5363 29.9561 30.5787 30.0338 30.0391 29.9649C28.934 29.8239 28.192 29.4138 27.5712 28.6012C26.8874 27.7061 26.5946 26.6106 26.6627 25.2019C26.7678 23.0255 27.8735 21.6092 29.7859 21.2012C30.6994 21.0062 32.2664 21.1823 33.0015 21.5624C33.1923 21.661 33.2063 21.6582 33.2701 21.5074C33.3072 21.42 33.386 21.1532 33.4453 20.9146C33.5046 20.6761 33.5709 20.4348 33.5925 20.3784C33.6464 20.238 33.2303 20.0347 32.498 19.8439C31.7752 19.6554 30.3935 19.5873 29.6483 19.7033C27.4146 20.0511 25.7238 21.5523 25.1838 23.6673C24.7792 25.252 24.8643 26.9324 25.4186 28.3048C26.07 29.9174 27.5701 31.1126 29.2523 31.3592C29.8669 31.4492 31.1153 31.4323 31.8326 31.3242ZM22.1258 29.8418L22.1446 28.3942L22.8946 28.3744L23.6445 28.3546V27.6966V27.0386L22.8946 27.0188L22.1446 26.999L22.1265 23.5284L22.1084 20.0578L21.2196 20.0584L20.3308 20.059L20.0205 20.5642C19.6694 21.1357 17.8291 23.9929 16.5883 25.8933L15.7615 27.1593V27.7584V28.3575L18.1508 28.3759L20.5401 28.3942L20.559 29.8418L20.5778 31.2893H21.3424H22.1069L22.1258 29.8418ZM17.4086 26.948C17.4375 26.8993 17.7039 26.4954 18.0007 26.0505C18.9128 24.6832 19.6755 23.4769 20.1357 22.6739L20.5754 21.9065L20.5578 24.4528L20.5401 26.999L18.9481 27.0178C17.6769 27.0328 17.3667 27.0187 17.4086 26.948Z" fill="black"/>
</svg>
